<?xml version="1.0" encoding="utf-8"?>
<!-- Generator: Adobe Illustrator 17.0.1, SVG Export Plug-In . SVG Version: 6.00 Build 0)  -->
<!DOCTYPE svg PUBLIC "-//W3C//DTD SVG 1.1//EN" "http://www.w3.org/Graphics/SVG/1.1/DTD/svg11.dtd">
<svg version="1.1" id="Layer_1" xmlns="http://www.w3.org/2000/svg" xmlns:xlink="http://www.w3.org/1999/xlink" x="0px" y="0px"
	 width="500px" height="500px" viewBox="0 0 500 500" enable-background="new 0 0 500 500" xml:space="preserve">
<path fill="#dfe6e7" d="M41,401.5l-9-4.5v-10l4.5-6v-15L67,341.5l13-16l8-13v10l13-10l4-13.5l6,3.5l11.5-8.5l4.5-26.5l-16.5-43
	l-31-31.5L71,176l8.5-37l6-53l14.5,23.5l8.5-26L109,57l8,20l2,25l14.5-28.5l6-34.5l6.5,23.5V79l19.5-26l9-10l-4,27.5l-2.5,25
	l6.5-6.5l10-16l13-6.5l-12,31l-18,30.5h7l16.5-11l17-12l-7,18l-15,17.5h6l16-13l11.5-2.5l-11,21l-12,12l19.5-8l8,0.5L199.5,173
	l12.5-1l12-3l-22.5,18.5L218,195l-7,3l6,6l15,18.5l5-35l23-24.5l61.5-46L349,81.5l-4.5,20.5L323,132l20.5-12.5l21-21L375,70v22
	l-5,15.5L354.5,126l44-25l27-29.5V86l-14,14L385,128.5l73.5-39L453,100l-27,21l-28,16l22-3.5l28-8.5l15-11.5l-8.5,10.5l-37,19.5
	L402,153l2,3l63.5-22.5l-4.5,8L410.5,166l-14.5,4l49-4.5l-14.5,10L403,185l18-1l-35,13.5l-10.5,2l36.5,4L356.5,214l-1,9.5l5,7.5
	l-4,5.5l9,5l-6,4l5.5,8l-7,7l0.5,9.5l-4.5,11l-12-3.5l2.5,9L340,298l-15.5,1.5l-3,9L312,313l-1.5,4l-32-4l-18.5-2l-17,10l18-6.5
	L467.5,384l-27,7v5l-17.5,2l-3,3.5c0,0-3,0.5-12.5,0s-13.5,0.222-13.5,0.222L389.5,406h-17H346h-11.5l-5.5-4.5l-9.5,1.5l-34-26.5
	L262,377l-2.5,12.5l-5.5-6l-0.5,16.5l-3.5,8l-3.5-11l-1,21l-8.5-7.5l-8,16.5l-4.5-7.5l-6-4.5l-6,12l-2.5-8.5l-14.5,8.5L183,437.5
	l8.5,11l-7,10l-5,2.5l1.5-10.5l-5,0.5l-16,6.5l8.5-11.5l1-5l-9,4l-12.5,0.5l10-11.5l10.5-4l-2-7.5l-6,4.5l-5.5-7.5l-23,17l5,7
	l-1.5,8.5l-13.5,4l7-9.5l-5-2.5l-6,8.5l-16.5,1.5l11-8l-0.5-8.5l-9,7.5l-10,2.5l0.5-10.5l17.5-8l-6.5-4l12.5-5l7,4.5v4.5l27.5-14
	c0,0,0-10,0.5-8.5s17-14,17-14l2-20l-18-7.5l3.5,5.5l-19-1l-18.5-3l4.5,4l-22,1l-26,10L70,386h-6l-17,5l-7,3.5L41,401.5z"/>
</svg>
