<?xml version="1.0" encoding="utf-8"?>
<!-- Generator: Adobe Illustrator 17.0.1, SVG Export Plug-In . SVG Version: 6.00 Build 0)  -->
<!DOCTYPE svg PUBLIC "-//W3C//DTD SVG 1.1//EN" "http://www.w3.org/Graphics/SVG/1.1/DTD/svg11.dtd">
<svg version="1.1" id="Layer_1" xmlns="http://www.w3.org/2000/svg" xmlns:xlink="http://www.w3.org/1999/xlink" x="0px" y="0px"
	 width="500px" height="500px" viewBox="0 0 500 500" enable-background="new 0 0 500 500" xml:space="preserve">
<polygon fill="#000433" points="298.5,452.5 321,437.5 326,425.5 344.5,401.5 348,374.5 335,331 312,291.5 295,276.5 289.5,256 
	300,242.5 316,234.5 329.5,217 337,191 337,186.5 310,197.5 292.5,215 279.5,226.5 279.5,212.5 299.5,197 326,169.5 348,125.5 
	355.5,96.5 355.5,71.5 358.5,55.5 351.5,65.5 307.5,46 337.5,71 347,98 329,145.5 328.5,124 319,96.5 322.5,121 319,156.5 
	297.5,185.5 276,198 266,186 266,161 266,141 259.5,166 259.5,188 264.5,200.5 265.5,208.5 257,214 241,214 224.5,207.5 216.5,189 
	207.5,175 201,160 194.5,141 197,166.5 203,184 208.5,193 174,161 163.5,146 155,127.5 151.5,107.5 151.5,97 198.5,75.5 165.5,85.5 
	155.5,86 161,75.5 171.5,62 176.5,48.5 166.5,61 154.5,71.5 147.5,74 145,64.5 145,91.5 142,113.5 147.5,138 161.5,162.5 
	185.5,187.5 207.5,207.5 214,217 214,223 181.5,200 161,193 151,192 164,212.5 170,223 199,242.5 205,239.5 205,249.25 212.5,275.5 
	209,298 223,314 220.5,327 224.5,346 221.5,394 231.5,412.5 253.5,430.5 266,448.5 "/>
</svg>
