<?xml version="1.0" encoding="utf-8"?>
<!-- Generator: Adobe Illustrator 17.0.1, SVG Export Plug-In . SVG Version: 6.00 Build 0)  -->
<!DOCTYPE svg PUBLIC "-//W3C//DTD SVG 1.1//EN" "http://www.w3.org/Graphics/SVG/1.1/DTD/svg11.dtd">
<svg version="1.1" id="Layer_1" xmlns="http://www.w3.org/2000/svg" xmlns:xlink="http://www.w3.org/1999/xlink" x="0px" y="0px"
	 width="500px" height="500px" viewBox="0 0 500 500" enable-background="new 0 0 500 500" xml:space="preserve">
<path fill="#376885" d="M366,126l-1,13h-10v-13h-14.5v13.5L328,139v-13h-14l0.5,13.5l-12-0.5l-0.5-13h-12.5l-0.5,62.5h-12.5v7.5h-8
	v-9H256v9.5h-10.5v-10H233v9h-9V187h-9.5v-61H200v15h-12v-15h-14.5v14.5H162V126h-13v15.5h-12V126h-15v248h93V265.5l5-23.5l4-10.5
	l9-9l14-4.5l10,1l12.5,3.5l9.5,9l9.5,18.5v124H379V126H366z M168.75,321.5H164V285h4.75V321.5z M168.75,252.5H166V219h2.75V252.5z
	 M171.5,188.5H166v-27h5.5V188.5z M337,321.5h-6V285h6V321.5z M337,252.5h-6V217h6V252.5z M337,188.5h-3v-29h3V188.5z"/>
</svg>
