<?xml version="1.0" encoding="utf-8"?>
<!-- Generator: Adobe Illustrator 17.0.1, SVG Export Plug-In . SVG Version: 6.00 Build 0)  -->
<!DOCTYPE svg PUBLIC "-//W3C//DTD SVG 1.1//EN" "http://www.w3.org/Graphics/SVG/1.1/DTD/svg11.dtd">
<svg version="1.1" id="Layer_1" xmlns="http://www.w3.org/2000/svg" xmlns:xlink="http://www.w3.org/1999/xlink" x="0px" y="0px"
	 width="500px" height="500px" viewBox="0 0 500 500" enable-background="new 0 0 500 500" xml:space="preserve">
<path fill="#fae899" d="M336,104.5l10.5,6.5v-6.5L339,98l-7.5-1l-8.5,8l-1,14.5l3,15.5l4,18v19l-9-3.5l-11,1l-8,6.5l-3.5,8.5l4.5,9
	l5-3l-4-2.5l-0.5-5.5l6-5l9-3.5l9,6l-8.5,11l-15,10.5h-13l-19-8.5v-6.5l3.375-5V173L272,165l10-7l-1-50.5L297.5,85l-14-25l-32.25-32
	L223.5,55L205,85l16.5,25l-1.5,48.5l8,6.5l1.5,7l-2.5,0.5l1,10l4,2.5l1,6.5l-15.5,7.5l-12,2.5L187,194l-8-10.5l-1.399-5.014
	L184,175.5l13,4.5l1.5,7l-4,4l3.5,2l4.5-3l1-10.5l-7-8l-9.5-2h-11l-0.765,0.51L173,162l3.5-24l4-15l-2-19.5l-10-6.5l-8.5,3
	l-5.5,10.5l9-6.5l8.5,1.5l1.5,13.5l-6,16l-4.5,32.5l2.909,8.727L164,177.5l-6.5,17.5l3,21l11.5,17l14,7.638L207,238l16-12
	l-18.5,32.5l-20,24.5L168,298.5l-11,21l-2.5,23l8,20.5l15,11l18.5-8.5l9.5-14.5l1-20.5l-6-12H192l-9,8l2.5,3.5l5-5.5h6l4,9.5
	l-3.5,17.5l-11.5,9.5l-10.5,1l-9.5-10l-3-16.5l3-17l9.5-14l12-11.5l14.5-11.5l13-16.5l-2.5,20.5l2.5,22L219,335l4.253,9.401
	L219,368.5v25l5,27l7,26l13,25.5l-6-23.5l-7-31l-2.5-29.5v-22l1.49-6.706L238,377l-3-19l-2.432-10.267L238,326.5l6.5-35.5l3.5-39
	v-42l6,1.5V250l2.5,33.5l6,38.5l6.974,28.529L263,375.5l9.286-13.465L273.5,367l-0.5,34l-4.5,30.5l-9,40.5l17.5-44l6.5-32.5L282,353
	l-2.815-10.556l0.315-0.944L286,321l4-31.5l-2.5-25l13.5,18l25,24l12,19l-0.5,24l-13,13L313,358l-9.5-12.5V328l9-2.5l4.5,6.5l2-4.5
	l-4.5-7.5l-11.5-2l-7,11.5V348l11,17.5l23.5,6.5l16-18.5V326l-10-24.5L317,282l-16-17.5l-13-21l-9-17.5l10,8l16.5,6.638l17-2.638
	l14.5-12l7-15.5l-0.5-18.5l-6-12l2.5-15.5l-3.5-18L332,130l-3.5-12.5l1-10.5L336,104.5z M209,221.5l-17,8l-18.5-8l-8-16.5l0.5-12.5
	l3.733-4.8l1.767,5.3l13,17l16,5l19.5-2.5L209,221.5z M230.625,182.375l-1.25-3.875l1.125-3.875h2.75l2.5,1.875v3.75l-1.75,2.875
	L230.625,182.375z M238,240.638V275l-5,30.5l-5.393,21.287L226,320l-4.5-23.5L224,268l6.5-27.362l10-22.638L238,240.638z
	 M266.75,176.75l1.625-2.125h2.75l1.75,2.5v3.563l-2.25,1.813H268l-2.125-3.625L266.75,176.75z M280,275l-1,40l-3.58,13.325L274,323
	l-3-15.5l-6-49.5l-3-39l11,26.5L280,275z M333,186l4,14.5l-3.5,16l-20,12.5l-17-4L282,213l20,2.5l12-4l11-10.5L333,186z"/>
</svg>
