<?xml version="1.0" encoding="utf-8"?>
<!-- Generator: Adobe Illustrator 17.0.1, SVG Export Plug-In . SVG Version: 6.00 Build 0)  -->
<!DOCTYPE svg PUBLIC "-//W3C//DTD SVG 1.1//EN" "http://www.w3.org/Graphics/SVG/1.1/DTD/svg11.dtd">
<svg version="1.1" id="Layer_1" xmlns="http://www.w3.org/2000/svg" xmlns:xlink="http://www.w3.org/1999/xlink" x="0px" y="0px"
	 width="500px" height="500px" viewBox="0 0 500 500" enable-background="new 0 0 500 500" xml:space="preserve">
<path fill="#ffe893" d="M742.093,339.074"/>
<polygon fill="#ffe893" points="127.056,239.876 155.146,243.809 161.888,249.989 183.236,249.989 193.348,256.73 197.281,265.719 
	220.315,278.64 225.933,291.562 197.843,296.056 196.157,312.348 211.888,362.348 200.09,375.27 174.247,370.213 155.146,376.393 
	148.966,392.124 175.371,416.843 195.034,416.843 239.416,404.483 259.079,387.067 259.079,369.09 266.382,369.09 263.011,347.18 
	284.36,347.18 322,385.944 337.169,390.438 348.404,416.843 330.989,441.562 319.191,455.045 328.18,472.461 348.404,472.461 
	355.146,476.955 371.438,476.955 389.978,455.045 393.348,425.27 397.281,424.708 401.213,412.067 405.708,406.169 400.652,397.18 
	402.899,392.124 394.472,387.067 393.348,370.775 366.382,347.18 362.449,320.213 400.09,307.854 409.079,287.067 402.337,255.045 
	345.596,215.719 335.483,197.742 345.596,189.876 348.404,203.36 365.258,218.528 396.719,219.09 405.146,206.73 388.854,183.697 
	369.753,165.719 347.843,165.719 327.618,173.022 320.315,185.944 324.247,216.281 354.584,247 376.494,277.517 360.764,285.944 
	327.618,259.539 300.09,248.595 288.292,226.393 300.652,217.966 316.944,178.079 320.876,178.64 335.483,155.045 352.337,142.124 
	355.146,100.551 356.831,86.506 342.787,67.966 343.348,53.921 318.067,33.697 311.888,23.022 301.775,28.079 285.483,23.022 
	246.719,33.697 240.539,51.674 208.517,66.843 202.337,80.326 201.775,107.292 207.955,117.966 221.438,116.843 229.303,120.775 
	241.663,121.337 242.787,124.708 231.551,130.326 209.64,133.697 200.652,147.18 188.292,152.798 185.483,137.067 176.494,103.36 
	151.775,82.573 128.742,95.494 128.742,123.022 138.292,131.449 146.719,156.169 140.539,187.067 147.281,197.742 115.82,186.506 
	96.719,189.876 90.539,210.101 98.404,234.82 "/>
</svg>
