<?xml version="1.0" encoding="utf-8"?>
<!-- Generator: Adobe Illustrator 17.0.1, SVG Export Plug-In . SVG Version: 6.00 Build 0)  -->
<!DOCTYPE svg PUBLIC "-//W3C//DTD SVG 1.1//EN" "http://www.w3.org/Graphics/SVG/1.1/DTD/svg11.dtd">
<svg version="1.1" id="Layer_1" xmlns="http://www.w3.org/2000/svg" xmlns:xlink="http://www.w3.org/1999/xlink" x="0px" y="0px"
	 width="500px" height="500px" viewBox="0 0 500 500" enable-background="new 0 0 500 500" xml:space="preserve">
<polygon fill="#a5694e" points="121.5,363 133.5,365.5 142.5,364.25 152,355.5 152,342.5 152,329.5 159,320.5 163.5,320.5 
	180.5,340 190,348 201,354.5 192.5,361.5 180.5,364 163.5,367.5 155,377 152,390.5 157.25,405 170,413.5 182,413.5 167.5,403.5 
	162.5,388.5 172.5,377 192.5,375 215.5,373 224,363.5 246,369.5 246,378 255,389 275,397.5 286.5,405 291.5,413.5 291.5,424 
	285.5,431 272.5,438.5 280,438.5 294,429 297.5,417 297.5,405 291.5,396 278,388 274,379.5 274.5,369.5 289.5,365.5 303.5,361.5 
	316.5,367 323.5,375.5 323.5,387 321,394 320.5,404.5 327,413 335,419 345,420 355.5,416.5 343.5,414.5 335,407 332,396 336,384.5 
	341.5,376 340.5,359 331.5,351 327.5,347.5 333,340.5 433,434 445.5,417 367.5,344.5 382,335.5 392,331 405.5,334 411.5,343 
	410,360 415,348 415.5,334.5 405.5,323.5 395,320.5 381.5,325 368.5,328.5 357.5,320.5 355,314.5 362.5,298.5 368,282 369,274 
	377,271 391,273.5 400,279.5 410,288 421,291 433,288 441,278 442,263 435.5,274.5 424,279.5 411,274 405,263 396.5,251 389,247.5 
	377.5,247.5 369.5,252.5 369,237.5 366,225 375.5,222 384,215.5 388,205.5 388.5,188.5 394.5,177.5 403.5,169.5 413.5,169.5 
	422,173 428,184 428.5,176 422.5,164.5 408.5,157 399,157 388.5,161 381,171 378,183.5 370.5,193 359,196.5 351.5,194.5 
	340.5,179.5 325.5,167 317,160 318,148 324,142 336,137 349.5,133.5 359,125.5 362.5,110 356.5,95 349,89 330,86.5 349.5,95 
	351.5,108 345.5,116.5 325.5,122.5 311,124.5 303,127.5 295.5,136.5 293.5,150 279.5,146.5 267,145 272,135 270,124 265.5,114.5 
	255,108.5 245.5,101 245,89.5 247.5,77 238,83 234,93.5 237,105.5 247,119 247.5,133 239,145.5 223.5,150.5 206.5,156.5 198,158 
	190,152.5 185.5,140.5 189.5,127.5 189,113 180,102 170.5,99.5 156.5,101 170.5,104 178,112 178.5,123.5 170.5,140.5 169,159.5 
	106,96 133.5,93 92,77 55,61 67.5,90.5 84.5,142 89,110 168.5,186.5 155.5,178.5 143.5,177 134,181.5 127.5,190 119,199 107,201 
	97,195.5 91,187.5 91,177 95.5,169 87,183 88.5,197 96.5,206 106,211.5 116,210.5 126.5,204.5 134,200 143.5,203.5 150,213.5 
	149.5,226.5 140.5,242.5 131,249.75 116.5,253 104,245 93.5,241 81.5,242.5 74,246 68.5,254.5 65.5,263 80,255.5 93.5,252 
	106,259.5 116,270 128.5,278 145,275 149.5,294 138.5,299.5 133,307 132,314.5 137,325 141,337.5 142,348.5 136.5,358.5 128,360 "/>
</svg>
