<?xml version="1.0" encoding="utf-8"?>
<!-- Generator: Adobe Illustrator 17.0.1, SVG Export Plug-In . SVG Version: 6.00 Build 0)  -->
<!DOCTYPE svg PUBLIC "-//W3C//DTD SVG 1.1//EN" "http://www.w3.org/Graphics/SVG/1.1/DTD/svg11.dtd">
<svg version="1.1" id="Layer_1" xmlns="http://www.w3.org/2000/svg" xmlns:xlink="http://www.w3.org/1999/xlink" x="0px" y="0px"
	 width="500px" height="500px" viewBox="0 0 500 500" enable-background="new 0 0 500 500" xml:space="preserve">
<path fill="#bcbec0" d="M742.093,339.074"/>
<polygon fill="#BCBEC0" points="52.093,228.407 82.593,247.907 82.593,274.407 110.093,271.907 106.093,301.907 133.593,301.907 
	127.093,328.907 161.093,323.907 157.593,352.407 186.093,352.407 186.093,372.407 201.093,400.907 217.093,362.407 
	227.593,377.407 240.593,335.907 251.093,352.907 263.593,308.907 274.593,326.907 285.593,285.407 293.093,298.907 
	307.593,262.407 328.093,249.907 346.593,257.907 346.593,272.907 360.593,269.407 360.593,287.407 383.093,269.407 
	388.593,253.407 400.093,231.636 383.093,238.907 378.093,228.407 370.593,235.907 368.593,223.907 356.093,231.636 
	350.593,213.907 341.593,221.407 341.093,209.407 332.093,212.407 324.593,204.407 329.593,197.407 338.593,205.907 
	348.593,200.407 355.093,211.407 366.593,204.907 372.093,214.907 381.593,208.407 385.593,217.407 400.093,210.407 
	405.093,209.907 397.093,223.907 407.593,223.907 419.593,206.407 450.093,165.907 383.093,150.407 369.593,135.407 
	300.093,117.407 260.593,124.407 244.093,117.407 230.093,104.907 242.593,129.907 220.593,132.407 192.593,123.907 
	209.093,141.407 180.093,147.407 155.593,141.907 175.093,156.907 152.093,164.907 124.093,161.907 147.593,177.407 
	120.093,183.407 94.093,181.407 114.093,196.907 91.593,204.907 68.593,203.407 88.593,217.407 69.093,227.407 "/>
</svg>
