<?xml version="1.0" encoding="utf-8"?>
<!-- Generator: Adobe Illustrator 17.0.1, SVG Export Plug-In . SVG Version: 6.00 Build 0)  -->
<!DOCTYPE svg PUBLIC "-//W3C//DTD SVG 1.1//EN" "http://www.w3.org/Graphics/SVG/1.1/DTD/svg11.dtd">
<svg version="1.1" id="Layer_1" xmlns="http://www.w3.org/2000/svg" xmlns:xlink="http://www.w3.org/1999/xlink" x="0px" y="0px"
	 width="500px" height="500px" viewBox="0 0 500 500" enable-background="new 0 0 500 500" xml:space="preserve">
<g>
	<path fill="#BE1E2D" d="M378,193l-49.5-29H270l-17.5,5.5L266,194l-3.5,15l-18,4.5l-17-10.5v-27l46.5-24.5l15-34.5l-15-21.5h20
		L280,90h-18l-9.5-9.5l-36,4V90l2.5,3l3-4l2,4l4-3.5l1,4L219,97l-8-4v-7l-3-1v5.5l-7.5-5L205,95l10,5l6.303-1.112L223.5,98.5l4,3
		l-6,4l4.5,4l9.5-2.5l12.5,5.5l5.5-1.5l-5.5-3l11,3h8.5l4,10l-6.5,12.5l-17,5l-19.5,12L228,140l2.5-3l-3-6.5l1-9.5l-8-5.5l1.5-5
		l-13-4l1.5-3.5l-10-5l-4-5.5L193,85l-21.5,13l-19.5,4.5L131.5,116l3.5,6.5l2,2.5l1-4.5l4.5,2.5l1-5l3,4.5l-6,4.5h-9l-6-7v6
		l-4.5-0.5l7,6l14-1.5l1.643-1.493l1.319-1.199L153,120l-1.5,6l1,4.5L151,134l4,4l6.5-2l1.5-5l11-3l-5-6l10.5,1l-6.5-7l15,3
		l-2.5-9.5l11,6l8,9.5l3,25.5L200,174l-16.5-9l4.5-4.5l-18-7.5l8.5-2.5L162,147l4-3.5l-17.5-0.5l-1.5-7l-15.5,7.5L129,136l-16,12.5
		l3-16l-9.5,8.5l-16,22.5l-2.5,8L80.5,191l9.5,6.5l0.667,0.167L89,201l-11.5-2.5l7,5.5l-7,2l7.5,2l11.5-7.5l0.519-2.011L100.5,185
		l1,6.5l3.5,4.5l-4,2l6.5,2l10.5,1l-5.5-10.5l9-10L119,172l11.5-7l-8.5-3.5l20-2.5l17,7.5l7,3.5l4,5l3,6.5l5,2.5l1.5,7l5.5,3.5
		l-1,11.5l5.5-2.5l-0.5,12l5.5,0.5l1.5,8l-26-17.5l-1.5-16l-5-6.5l-7.5-2l1.999,1.999l4.501,4.501l-17-6.5l-1.5,6.5l6,0.5l3.5,7
		l-10.5-1l-4,4v6l7.5-5.5l3,6l14,6l1.5,14l-8.5,3.5l7,4l7-2l2-12l24,20l-3.5,3.5l10,2.5l5.5-8.5l4,26l-23,1L176,246l-6.5-3.5
		L163,246l10.5,5h-9l-5.5-2.5l-4,8.5l7-1l6.5,5l-6,2l-5,4.5l0.5,9.5l3.5-7l4.5,1.5h13l8.5,4.5l3.5,10.5l-4,7l12-1l0.5-6.5l-5-11.5
		l27.5,2l-2,4l-4.5,2.5l7.5,2.5l7.5-8l8-7l17.75,9.5l17.75,9.5l-3,6.5l-6.5,1.5l-7.75-11.5l-12.25-9l-3.5,3.5l7,4h-10l-3,6.5l6.5-2
		l0.5,4.5l-5.5,4.5l-1.5,5.5l2.5,5l2.5-6.5l8.75,1.5l8,2l6.75,6l3.5,6l1.5,2.5l-6,2.5l8.5,1.5l3.5-6l-4.5-12l8-1.5l4.5,19.5
		l-14.5,5.5l-14,1L238.5,315l-6.5-3l-4.5,3l-1,4l4.5-1.5l3.5,1v5l-4.5-1l-5,0.5l-2,3.5l-0.5,6.5l2.5-4l5-1.5l1,4l3.5,2l-5.5,3
		l-2,4.5l1,5.5l4.5,3l-1-9H248l8.75,4l6.75,6.5l4,2l-3,8l6.5-3.5v-12l-8.5-6h15l12.5-3l-2.5,5.5l-5,2.5l7,1l5-7l6-20l-3.5,30
		L283,369l-26.25,14.5l-42.75-3l-25.5-8l11.5-1l7-19l4,3v-21l2.5-3.5l-10-16.5l-8-1.5l9.5-2l-16.5-9l-13,0.5l6.5-6h-16l-9.5,4l2-8.5
		l-10,6l-4,11.5L138,300l-3,24l0.5,7l-4-4l-0.5,7l-31-56h14l2,4l14-4l5,7l8.5-12l4.5-0.5l1.5-18l2-6.5l-7-11.5l0.5-4.5l-18.5-7l6-4
		H113l-4-4.5l-15.5,17l-5-22l-11,0.5v27l6.5,14.5L94.5,267l-17-5.5l8.5,18l9,17.5l2,10l22.5,23l-2.5,4l12.5,9.5l5,7.5l13.5,13l1,6
		l20,7.5l13.5,6.5l-11,1.5l28.5,7l0.5,6.5h30l-5,7l31.25-9.5l-5.25,6l27-11l-1,5.5l18-16.5l2,6l16-23.5l0.5,11.5l11.5-16
		l0.251-6.529L326,345.5l3.5,12.5l7.5-24.5l5.5,5.5l-1.5-25l6,2.5l-5-17.5l5.5-0.5l-6-15.5l7.5-1.5l7,8l-3.5,28l8.5,4.5l-2.5,15.5
		l-9.5,11l-11.5,8l5.5,4l-0.5,12c0,0-8,7.5-9.5,8s-17.5,7-17.5,7l-16,2.5l1,10.5l-11.5,9l-17.5,4.5H253l-34-3.5l18,7.5h30l43.5-8
		l23-13.5l28-24l19.5-34l3-36l-3.5-35l-20.5-35l-25.5-25l-9-3.5l-1.5,15.5L312,232l-16.5,3.5l6-9.5l-25,0.5l6.5-4l-5.5-2
		c0,0,13-4,14-2.5s1,1.5,1,1.5l-1-11l4-9l15,4.5l7,4.5l2-12l9.5-2l25.5,24.5l4-5.5l11.5,2l9.5,17.5l2.5,25.5l13.5,4.5l6,12.5l-1,21
		l-6.5,12l5,4l3,12l-6.5,18.5l-40,46.5l3,3L401,351l19-45v-31.5L405,230L378,193z M91.6,195.8L90,194l2.142-2.5L90,190l7-5
		L91.6,195.8z M95.5,249.25l5.5-9.75l8-5.5l16,2.5l11,14.5l-5.5,11.5l-13,4.5l-15-6L95.5,249.25z M180.5,358h-15L154,348l-6-17.5
		V322l10-9h15l18,12.5l2.5,21.5L180.5,358z"/>
	<path fill="#BE1E2D" d="M292,106l11,4.5l9.5,4l-15,3v5.5l-7,10.5h4l3,14l6.5,5l6,3.5h24l10.5-8.5L338,141l6.5-3.5v-9L350,140l3.5,1
		v4l13.5,8.5l-6,2.5l12,7h-7l18.5,14.5h-8l17,15h-7l15,13h-7L406,218v3l16.5,49.5l-2.5-54l-5.5-4L415,199h-6l-1-14l-7,0.5V170
		l-8,0.5l-7.5-18H381l-5-13l-6.5-0.5l-13-13.5l-5-1.5l-9.5-9.5h-10l-5.5-9.5l-5-2.5L319,105l-5-2.5l-3-3.5h-22.5L292,106z
		 M316.5,123.5H329l2.5,7.5l-3,11.5L316,145l-9-5.5V131L316.5,123.5z"/>
</g>
</svg>
