<?xml version="1.0" encoding="utf-8"?>
<!-- Generator: Adobe Illustrator 17.0.1, SVG Export Plug-In . SVG Version: 6.00 Build 0)  -->
<!DOCTYPE svg PUBLIC "-//W3C//DTD SVG 1.1//EN" "http://www.w3.org/Graphics/SVG/1.1/DTD/svg11.dtd">
<svg version="1.1" id="Layer_1" xmlns="http://www.w3.org/2000/svg" xmlns:xlink="http://www.w3.org/1999/xlink" x="0px" y="0px"
	 width="500px" height="500px" viewBox="0 0 500 500" enable-background="new 0 0 500 500" xml:space="preserve">
<polygon fill="#DFEAF7" points="363,377.5 350.5,377.5 311,362 293.5,358.5 281,355 253,359.5 226.5,355 202.5,333.5 183,300.5 
	169,265.5 169,242.5 148.5,215.5 136.5,194 163.5,172.5 181.5,160.5 201,154.5 249.75,130 285,122.5 325,122.5 349.5,136 341.5,144 
	338.5,148.5 347,144.5 357.5,144.5 359.5,152 357.5,160 352.5,167.5 321,182.5 284.5,194 262,216 249.75,242 260,260 268,292 
	258,292 243,285.5 249.75,301.5 258.5,316.5 276.25,325 281,328 298,329 309,331.5 325,316.5 347,302 359.5,298.5 356,328 354,339 
	360.5,356.5 "/>
</svg>
