<?xml version="1.0" encoding="utf-8"?>
<!-- Generator: Adobe Illustrator 17.0.1, SVG Export Plug-In . SVG Version: 6.00 Build 0)  -->
<!DOCTYPE svg PUBLIC "-//W3C//DTD SVG 1.1//EN" "http://www.w3.org/Graphics/SVG/1.1/DTD/svg11.dtd">
<svg version="1.1" id="Layer_1" xmlns="http://www.w3.org/2000/svg" xmlns:xlink="http://www.w3.org/1999/xlink" x="0px" y="0px"
	 width="500px" height="500px" viewBox="0 0 500 500" enable-background="new 0 0 500 500" xml:space="preserve">
<polyline fill="#eec982" points="371.5,207.25 371.5,190.25 362,173.75 340.5,153.75 326.5,142.75 312.5,139.25 301,139.25 
	292.5,147.25 302,147.75 311,153.75 319.5,162.25 323.5,173.25 329.5,180.75 339.5,188.25 350,195.75 358,206.75 361,216.25 
	359.5,227.25 367,221.917 "/>
<polygon fill="#eec982" points="166,302.25 196.5,282.25 218.833,265.75 221.5,261.25 216,257.75 198,257.75 177,252.75 166,249.5 
	190,247.25 213.5,244.75 218.833,244.75 221.5,241.75 221.5,237.25 215.5,233.75 193.75,219.75 174,205.75 157.5,199.25 
	151.5,199.25 145,202.75 139.5,213.25 142.5,227.25 149,244.25 148,259.75 144,269.75 139.5,279.75 139.5,289.75 143,298.75 
	150.5,304.75 158.5,304.75 "/>
<polygon fill="#eec982" points="173.5,331.75 173.5,325.25 180.5,313.75 196.5,294.75 213.5,279.25 221.5,271.25 225.5,271.25 
	229,275.25 229,284.25 221.5,304.75 218.833,318.75 218.833,326.25 226.5,310.25 236.5,293.25 240,284.75 243,280.75 250.75,282.25 
	251.5,294.75 254.5,308.25 254.5,323.25 260.5,339.75 260.5,351.25 256,362.25 248,365.25 237,365.25 225.5,354.25 217,347.25 
	209.5,344.75 192.5,346.25 180.5,342.75 173.5,337.75 "/>
<polygon fill="#eec982" points="226.5,232.25 231,227.25 226.5,214.75 221.5,194.25 218.833,170.25 231,193.75 240,213.75 
	244.5,221.917 250.75,221.917 251.5,211.25 260.5,183.25 263,165.25 260.5,149.25 250.75,141.25 235.5,141.25 225,146.75 
	217,154.75 201,157.75 180.5,160.25 173.5,166.25 170.5,172.75 173.5,183.25 183,191.75 195,204.75 208,216.25 216.75,225.25 "/>
<polygon fill="#eec982" points="263,224.75 271,221.917 282,214.25 292.5,205.75 306,195.75 316.5,189.25 305.5,204.75 
	295.5,215.75 283.5,232.25 280,236.25 279.5,241.75 283.5,246.75 289.75,246.75 316.5,243.75 332,241.75 346.5,236.25 354,227.25 
	354,212.25 347.5,199.25 337,191.75 326.5,186.75 318.5,177.25 314.5,165.25 303.5,155.25 292.5,151.75 280.5,157.25 274.5,169.75 
	268.5,186.75 263,204.25 260.5,216.75 260.5,221.917 "/>
<polygon fill="#eec982" points="314.5,307.25 302,291.25 290,277.75 280,267.75 280,261.75 283,255.75 297.25,255.75 314.5,257.75 
	335.5,261.75 347.5,266.75 354,274.25 357,286.25 354,296.25 344.5,304.75 335.5,312.25 326.5,318.25 318.5,332.75 312.5,343.25 
	302.5,348.75 290.5,348.75 280,342.75 273.5,330.75 269,318.25 265,302.25 260.5,287.75 260.5,279.75 266,275.25 270.5,275.75 
	279.5,283.75 292.5,293.25 "/>
<polygon fill="#eec982" points="229,246.75 229,255.75 233.5,265.75 243.5,271.25 254,271.25 266,266.75 271.5,255.75 271.5,244.25 
	265,232.25 255.5,229.75 245,229.75 236.5,232.25 "/>
<polygon fill="#eec982" points="335,250.5 350.5,246.75 366,236.25 386,250.5 367.5,262.25 350,255.75 "/>
<polygon fill="#eec982" points="266.5,373.25 266.5,361.75 266.5,338.75 292.5,365.25 284,386.25 "/>
<polygon fill="#eec982" points="296.5,357.25 307.25,362.5 329,359.875 344.5,348.75 364,327.75 375.5,304.75 371.5,287.25 
	360.5,274.25 363,292.75 357,304.75 345,313.75 335,322.25 328.5,329.25 321.5,341.75 312.5,348.75 305,354.75 "/>
<polygon fill="#eec982" points="271.5,158.75 290,135.25 283,112.75 266.5,131.25 "/>
<polygon fill="#eec982" points="260.5,139.25 246,133.25 233.5,135.75 218.833,144.25 209.5,148.75 194.5,151.75 180.5,151.75 
	173.5,155.75 167.5,166.75 167.5,153.75 173.5,141.25 185.5,129.25 203,121.75 218.833,117.75 233.5,117.75 244,121.75 253,128.25 
	"/>
<polygon fill="#eec982" points="132.5,166.75 139.5,189.25 159.5,192.25 173.5,196.75 167.5,183.25 158,166.75 "/>
<polygon fill="#eec982" points="115,252 117,229.75 121.5,212.25 132.5,199.25 139.5,199.25 132.5,204.25 135,216.75 139.5,236.25 
	144,249.25 141.5,262.25 136,274.25 132.5,286.75 137,302.25 139.5,307.25 129.5,299.75 121.5,285.25 117.5,267.75 "/>
<polygon fill="#eec982" points="136.5,338.75 144,313.75 153,313.75 178,302.25 167.5,320.5 160.5,336.25 "/>
<polygon fill="#eec982" points="167.5,344.25 173.5,357.75 180.5,369.25 195,377.25 216.75,383.75 233.5,383.75 245,379.25 
	249,374.5 253,369.75 241,372.75 233.5,369.75 218.833,360.75 210.25,353.25 199,348.75 186,352.25 173.5,348.75 "/>
</svg>
